<svg width="1147" height="1147" viewBox="0 0 1147 1147" fill="none" xmlns="http://www.w3.org/2000/svg">
<path d="M0 250C0 111.929 111.929 0 250 0H897C1035.07 0 1147 111.929 1147 250V897C1147 1035.07 1035.07 1147 897 1147H250C111.929 1147 0 1035.07 0 897V250Z" fill="#F8D54B"/>
<path d="M792.316 641.527C819.815 669.092 848.822 674.504 883.698 657.762C891.914 653.703 910.861 653.196 918.406 664.357C917.4 669.938 917.232 673.489 916.226 676.871C877.997 808.945 751.572 912.27 613.913 923.431C394.43 941.019 264.987 784.255 234.471 639.667C192.553 441.303 331.721 249.703 534.269 224.675C574.007 219.77 614.416 221.631 653.652 230.086C663.712 232.285 668.239 234.652 665.892 246.659C663.209 259.68 658.682 268.643 647.28 277.267C621.626 296.884 615.925 323.941 626.992 356.241C547.347 342.712 477.931 361.314 420.923 417.628C384.873 453.14 362.908 496.432 358.045 546.657C347.147 658.776 412.707 756.014 518.34 786.453C612.74 814.018 741.344 775.63 792.316 641.527Z" fill="#141414"/>
<path d="M638.092 380.877C620.3 404.119 610.061 428.209 615.265 457.219C619.964 482.666 632.889 502.176 653.702 517.444C658.569 521.007 663.437 527.454 663.94 533.052C668.808 589.036 714.295 625.51 770.188 617.198C771.698 617.028 773.209 617.028 774.72 617.198C772.034 678.78 705.063 749.523 630.875 769.712C545.272 792.954 453.964 758.006 405.959 683.7C357.619 608.885 363.83 512.016 421.233 442.799C473.098 380.538 567.596 352.885 638.092 380.877Z" fill="#141414"/>
</svg>
